name analog
datacolumns 19
datarows 40
range 0.3335 0.353
endheader
time	ground_force_vx	ground_force_vy	ground_force_vz	ground_force_px	ground_force_py	ground_force_pz	l_ground_force_vx	l_ground_force_vy	l_ground_force_vz	l_ground_force_px	l_ground_force_py	l_ground_force_pz	ground_torque_x	ground_torque_y	ground_torque_z	l_ground_torque_x	l_ground_torque_y	l_ground_torque_z
0.3335	-0.0	-0.0	-0.0	-0.0	-0.0	-0.0	8.432626724243164	-8.302238464355469	-770.5977172851562	-0.0	-0.0	-0.0	-0.0	-0.0	-0.0	272345.21875	-36574.8984375	1658.2498779296875
0.334	-0.0	-0.0	-0.0	-0.0	-0.0	-0.0	7.347830772399902	-7.610763072967529	-767.3358154296875	-0.0	-0.0	-0.0	-0.0	-0.0	-0.0	272234.8125	-36283.30078125	856.7886352539062
0.3345	-0.0	-0.0	-0.0	-0.0	-0.0	-0.0	6.889546871185303	-6.820611953735352	-768.1139526367188	-0.0	-0.0	-0.0	-0.0	-0.0	-0.0	272107.09375	-36120.80859375	357.4698181152344
0.335	-0.0	-0.0	-0.0	-0.0	-0.0	-0.0	7.091928482055664	-6.162866592407227	-769.1033325195312	-0.0	-0.0	-0.0	-0.0	-0.0	-0.0	272071.5625	-36115.93359375	423.7251281738281
0.3355	-0.0	-0.0	-0.0	-0.0	-0.0	-0.0	8.353400230407715	-5.2158203125	-766.7177734375	-0.0	-0.0	-0.0	-0.0	-0.0	-0.0	271830.5	-36053.20703125	813.67431640625
0.336	-0.0	-0.0	-0.0	-0.0	-0.0	-0.0	9.93560791015625	-5.1322197914123535	-766.0386962890625	-0.0	-0.0	-0.0	-0.0	-0.0	-0.0	271349.0	-35739.4609375	1347.0675048828125
0.3365	-0.0	-0.0	-0.0	-0.0	-0.0	-0.0	10.220757484436035	-6.177784442901611	-764.3115844726562	-0.0	-0.0	-0.0	-0.0	-0.0	-0.0	270954.28125	-35478.87890625	1548.22998046875
0.337	-0.0	-0.0	-0.0	-0.0	-0.0	-0.0	10.033681869506836	-6.800769805908203	-763.5577392578125	-0.0	-0.0	-0.0	-0.0	-0.0	-0.0	270324.6875	-35253.69921875	1287.224365234375
0.3375	-0.0	-0.0	-0.0	-0.0	-0.0	-0.0	9.127942085266112	-6.958957672119141	-761.848876953125	-0.0	-0.0	-0.0	-0.0	-0.0	-0.0	269481.0	-34566.28515625	1014.8511962890624
0.338	-0.0	-0.0	-0.0	-0.0	-0.0	-0.0	7.979396343231201	-7.047518730163574	-760.1390380859375	-0.0	-0.0	-0.0	-0.0	-0.0	-0.0	268831.3125	-34257.0390625	773.620361328125
0.3385	-0.0	-0.0	-0.0	-0.0	-0.0	-0.0	7.101364612579346	-6.341233730316162	-759.0733642578125	-0.0	-0.0	-0.0	-0.0	-0.0	-0.0	268586.65625	-33619.7890625	590.6993408203125
0.339	-0.0	-0.0	-0.0	-0.0	-0.0	-0.0	7.176666259765625	-5.895382404327393	-759.3872680664062	-0.0	-0.0	-0.0	-0.0	-0.0	-0.0	268047.40625	-33391.6171875	386.2605895996094
0.3395	-0.0	-0.0	-0.0	-0.0	-0.0	-0.0	7.21624231338501	-4.937290191650391	-759.0728759765625	-0.0	-0.0	-0.0	-0.0	-0.0	-0.0	267875.0625	-32973.54296875	567.494873046875
0.34	-0.0	-0.0	-0.0	-0.0	-0.0	-0.0	7.194216728210449	-4.786581516265869	-759.7879028320312	-0.0	-0.0	-0.0	-0.0	-0.0	-0.0	268180.9375	-32451.02734375	715.8377075195312
0.3405	-0.0	-0.0	-0.0	-0.0	-0.0	-0.0	6.835003852844238	-5.387622833251953	-759.737060546875	-0.0	-0.0	-0.0	-0.0	-0.0	-0.0	268336.59375	-32177.2421875	859.4625854492188
0.341	-0.0	-0.0	-0.0	-0.0	-0.0	-0.0	6.382975101470947	-5.131023406982422	-760.83447265625	-0.0	-0.0	-0.0	-0.0	-0.0	-0.0	268470.875	-31969.314453125	568.2578735351562
0.3415	-0.0	-0.0	-0.0	-0.0	-0.0	-0.0	5.652571201324463	-5.623643398284912	-762.165283203125	-0.0	-0.0	-0.0	-0.0	-0.0	-0.0	268957.9375	-31092.259765625	381.28033447265625
0.342	-0.0	-0.0	-0.0	-0.0	-0.0	-0.0	4.109348297119141	-5.2993011474609375	-763.5946044921875	-0.0	-0.0	-0.0	-0.0	-0.0	-0.0	269849.875	-31102.796875	143.0531768798828
0.3425	-0.0	-0.0	-0.0	-0.0	-0.0	-0.0	3.4597206115722656	-5.218985557556152	-764.3719482421875	-0.0	-0.0	-0.0	-0.0	-0.0	-0.0	270383.21875	-30390.287109375	-205.1688537597656
0.343	-0.0	-0.0	-0.0	-0.0	-0.0	-0.0	2.391218423843384	-5.030380725860596	-767.0078735351562	-0.0	-0.0	-0.0	-0.0	-0.0	-0.0	271494.03125	-30089.216796875	-385.2095947265625
0.3435	-0.0	-0.0	-0.0	-0.0	-0.0	-0.0	1.4310733079910278	-3.9783589839935294	-768.133544921875	-0.0	-0.0	-0.0	-0.0	-0.0	-0.0	272019.15625	-29464.55859375	-738.9852905273438
0.34400000000000003	-0.0	-0.0	-0.0	-0.0	-0.0	-0.0	1.0645294189453125	-3.6020123958587646	-770.24365234375	-0.0	-0.0	-0.0	-0.0	-0.0	-0.0	272350.09375	-29190.74609375	-826.886474609375
0.34450000000000003	-0.0	-0.0	-0.0	-0.0	-0.0	-0.0	0.6983098983764648	-2.814967393875122	-772.0040893554688	-0.0	-0.0	-0.0	-0.0	-0.0	-0.0	273487.625	-29033.388671875	-1004.9915161132812
0.34500000000000003	-0.0	-0.0	-0.0	-0.0	-0.0	-0.0	0.9572202563285828	-2.042508840560913	-773.0802612304688	-0.0	-0.0	-0.0	-0.0	-0.0	-0.0	274639.5	-28948.28515625	-857.6074829101562
0.34550000000000003	-0.0	-0.0	-0.0	-0.0	-0.0	-0.0	1.4266918897628784	-0.960607647895813	-775.84375	-0.0	-0.0	-0.0	-0.0	-0.0	-0.0	275511.21875	-28972.677734375	-623.3978881835938
0.34600000000000003	-0.0	-0.0	-0.0	-0.0	-0.0	-0.0	2.2177696228027344	0.3712682723999023	-778.6365966796875	-0.0	-0.0	-0.0	-0.0	-0.0	-0.0	276749.0	-28935.486328125	-292.5530700683594
0.34650000000000003	-0.0	-0.0	-0.0	-0.0	-0.0	-0.0	2.8564436435699463	1.3177769184112549	-780.2981567382812	-0.0	-0.0	-0.0	-0.0	-0.0	-0.0	277495.34375	-28839.34765625	-53.410926818847656
0.34700000000000003	-0.0	-0.0	-0.0	-0.0	-0.0	-0.0	3.271822690963745	1.9396002292633057	-782.407470703125	-0.0	-0.0	-0.0	-0.0	-0.0	-0.0	277927.09375	-28704.173828125	177.30059814453125
0.34750000000000003	-0.0	-0.0	-0.0	-0.0	-0.0	-0.0	3.350491762161255	2.1537673473358154	-781.4417114257812	-0.0	-0.0	-0.0	-0.0	-0.0	-0.0	278043.84375	-28169.841796875	243.6727752685547
0.34800000000000003	-0.0	-0.0	-0.0	-0.0	-0.0	-0.0	2.739955186843872	2.7245922088623047	-780.7294311523438	-0.0	-0.0	-0.0	-0.0	-0.0	-0.0	277676.625	-27913.07421875	229.8418884277344
0.34850000000000003	-0.0	-0.0	-0.0	-0.0	-0.0	-0.0	1.130056858062744	2.113125801086426	-780.3147583007812	-0.0	-0.0	-0.0	-0.0	-0.0	-0.0	277573.21875	-27254.775390625	-379.8621826171875
0.34900000000000003	-0.0	-0.0	-0.0	-0.0	-0.0	-0.0	-1.2387114763259888	1.694238305091858	-781.3886108398438	-0.0	-0.0	-0.0	-0.0	-0.0	-0.0	277998.15625	-26689.544921875	-1037.6087646484375
0.34950000000000003	-0.0	-0.0	-0.0	-0.0	-0.0	-0.0	-3.174509763717652	3.176414966583252	-780.428955078125	-0.0	-0.0	-0.0	-0.0	-0.0	-0.0	278712.46875	-26456.09765625	-1575.7716064453125
0.35000000000000003	-0.0	-0.0	-0.0	-0.0	-0.0	-0.0	-4.365621089935303	3.971357345581055	-783.1470947265625	-0.0	-0.0	-0.0	-0.0	-0.0	-0.0	279587.59375	-26101.5859375	-2259.705078125
0.35050000000000003	-0.0	-0.0	-0.0	-0.0	-0.0	-0.0	-5.331826210021973	4.577496528625488	-783.8814697265625	-0.0	-0.0	-0.0	-0.0	-0.0	-0.0	280419.71875	-25643.361328125	-2618.180419921875
0.35100000000000003	-0.0	-0.0	-0.0	-0.0	-0.0	-0.0	-5.772225379943848	5.03733491897583	-783.2063598632812	-0.0	-0.0	-0.0	-0.0	-0.0	-0.0	280470.96875	-25539.533203125	-2909.901611328125
0.35150000000000003	-0.0	-0.0	-0.0	-0.0	-0.0	-0.0	-6.236211776733398	5.116804122924805	-784.6015625	-0.0	-0.0	-0.0	-0.0	-0.0	-0.0	281041.65625	-25394.22265625	-3064.429443359375
0.352	-0.0	-0.0	-0.0	-0.0	-0.0	-0.0	-7.460381507873535	4.319125175476074	-784.9155883789062	-0.0	-0.0	-0.0	-0.0	-0.0	-0.0	280755.9375	-25217.732421875	-3447.17138671875
0.3525	-0.0	-0.0	-0.0	-0.0	-0.0	-0.0	-8.000961303710938	3.1795806884765625	-784.1723022460938	-0.0	-0.0	-0.0	-0.0	-0.0	-0.0	280626.8125	-24733.75	-3622.94873046875
0.353	-0.0	-0.0	-0.0	-0.0	-0.0	-0.0	-9.145488739013672	2.116973161697388	-782.8848266601562	-0.0	-0.0	-0.0	-0.0	-0.0	-0.0	280672.28125	-24675.58984375	-3864.13720703125
